<?xml version="1.0" standalone="no"?>
<!DOCTYPE svg PUBLIC "-//W3C//DTD SVG 20010904//EN" "http://www.w3.org/TR/2001/REC-SVG-20010904/DTD/svg10.dtd">
<svg version="1.0" xmlns="http://www.w3.org/2000/svg"
 width="313.000000pt" height="394.000000pt" viewBox="0 0 313.000000 394.000000"
 preserveAspectRatio="xMidYMid meet">
<metadata>
Created by potrace 1.16, written by Peter Selinger 2001-2019
</metadata>
<g transform="translate(0.000000,394.000000) scale(0.100000,-0.100000)"
fill="#ffffff10" stroke="none">
<path d="M990 3906 c0 -3 21 -38 46 -77 169 -261 308 -685 345 -1053 16 -167
7 -503 -20 -678 -52 -338 -172 -701 -343 -1037 -37 -74 -66 -136 -64 -138 1
-2 39 38 82 89 283 331 616 590 896 698 189 73 392 84 552 31 l56 -18 0 28 c0
58 -31 250 -60 365 -155 633 -561 1200 -1133 1582 -149 100 -357 221 -357 208z"/>
<path d="M2825 1275 c-901 -186 -1769 -441 -2543 -747 -84 -33 -151 -62 -149
-64 2 -2 58 7 125 21 146 29 427 69 617 87 85 8 267 13 465 12 340 -1 484 -12
740 -55 109 -19 398 -86 440 -103 12 -5 20 16 41 102 54 225 183 436 404 660
77 78 136 142 130 142 -5 -1 -127 -25 -270 -55z"/>
<path d="M560 410 c-167 -7 -453 -30 -448 -36 2 -1 57 -12 123 -23 323 -55
676 -172 912 -302 40 -21 76 -39 80 -39 4 0 19 20 32 45 56 105 163 195 322
269 l92 43 -109 12 c-289 30 -724 44 -1004 31z"/>
</g>
</svg>
