<?xml version="1.0" standalone="no"?>
<!DOCTYPE svg PUBLIC "-//W3C//DTD SVG 20010904//EN"
 "http://www.w3.org/TR/2001/REC-SVG-20010904/DTD/svg10.dtd">
<svg version="1.0" xmlns="http://www.w3.org/2000/svg"  
 width="1280.000000pt" height="720.000000pt" viewBox="0 0 1280.000000 720.000000"
 preserveAspectRatio="xMidYMid meet">
<metadata>
Created by potrace 1.15, written by Peter Selinger 2001-2017
</metadata>
<g transform="translate(0.000000,720.000000) scale(0.100000,-0.100000)"
fill='#2c5d7b' stroke="none">
<path d="M7050 6483 c0 -25 -10 -33 -103 -78 -92 -45 -104 -55 -127 -96 -14
-25 -33 -58 -44 -72 -23 -34 -17 -60 29 -119 32 -43 39 -47 90 -53 45 -6 60
-4 90 14 20 11 48 21 63 21 15 0 38 7 50 16 28 19 56 11 71 -22 16 -36 5 -62
-27 -66 -24 -3 -28 -8 -32 -49 -10 -83 -56 -104 -95 -42 -22 36 -32 38 -84 22
-77 -25 -84 -29 -71 -44 6 -7 25 -17 41 -20 41 -9 45 -23 17 -50 -30 -27 -101
-65 -123 -65 -8 0 -24 9 -35 20 -20 20 -22 20 -68 4 -63 -23 -89 -15 -152 47
-35 34 -68 56 -98 65 -53 16 -108 18 -117 4 -3 -5 -44 -31 -91 -57 -47 -26
-93 -55 -104 -65 -27 -26 -59 -36 -132 -43 -80 -8 -159 -25 -175 -37 -7 -6
-23 -8 -36 -4 -23 5 -34 24 -67 114 -9 22 -18 31 -29 28 -9 -2 -41 -7 -72 -11
-53 -6 -56 -8 -76 -49 -25 -51 -57 -68 -163 -90 -94 -20 -125 -20 -144 0 -22
21 -20 35 9 78 34 50 32 66 -6 66 -22 0 -44 -12 -75 -39 -34 -29 -62 -43 -114
-56 -82 -20 -111 -47 -84 -76 14 -15 14 -23 3 -56 -21 -62 -24 -64 -100 -57
-38 4 -69 4 -69 0 0 -5 9 -19 20 -33 11 -14 20 -32 20 -39 0 -12 -86 -100
-114 -116 -7 -4 -38 2 -69 14 l-56 21 -85 -30 -85 -30 -31 32 c-18 19 -47 36
-66 40 -44 8 -58 34 -50 99 l7 51 -58 0 c-32 -1 -68 -6 -80 -13 -32 -18 -79
-15 -123 8 -22 11 -45 20 -53 20 -33 0 -63 -69 -37 -85 23 -14 8 -47 -35 -77
-34 -24 -50 -44 -64 -82 -15 -41 -24 -52 -49 -58 -41 -11 -52 -27 -59 -89 -6
-49 -5 -52 13 -44 22 9 106 22 210 31 69 6 71 6 93 -22 13 -16 21 -38 19 -53
-2 -22 -14 -30 -65 -50 -51 -20 -63 -29 -63 -47 0 -27 -17 -41 -55 -46 -30 -3
-30 -4 -27 -58 3 -74 -3 -97 -31 -103 -12 -4 -30 -20 -40 -36 -21 -35 -155
-171 -169 -171 -5 0 -34 -25 -64 -55 -31 -30 -66 -62 -80 -71 -13 -9 -24 -26
-24 -39 0 -26 -21 -46 -74 -71 -46 -22 -56 -40 -27 -49 12 -3 21 -12 21 -20 0
-21 -47 -72 -99 -107 -25 -18 -54 -42 -63 -54 -10 -12 -39 -27 -65 -34 -26 -7
-69 -26 -94 -41 -35 -22 -58 -29 -97 -29 -43 0 -53 -4 -63 -22 -6 -12 -22 -33
-35 -47 -35 -38 -37 -55 -14 -110 22 -49 22 -51 5 -118 -9 -37 -25 -84 -35
-104 -16 -31 -17 -38 -5 -60 8 -13 17 -30 21 -38 25 -49 -176 -241 -333 -317
-31 -15 -66 -43 -85 -67 -49 -63 -71 -83 -155 -143 -43 -31 -78 -59 -78 -63 0
-3 11 -38 24 -78 l24 -72 -36 -40 c-20 -22 -50 -66 -67 -98 -16 -32 -39 -74
-50 -93 -40 -70 -19 -129 66 -186 90 -60 97 -108 29 -204 -43 -60 -45 -68 -45
-131 0 -87 -10 -112 -59 -145 -33 -21 -57 -28 -126 -33 -69 -5 -89 -11 -107
-28 l-22 -22 32 -45 c24 -34 31 -51 26 -73 -4 -21 0 -33 15 -47 17 -16 26 -17
71 -7 28 6 69 11 90 11 52 0 137 19 153 34 40 38 217 176 244 190 35 18 53 43
53 75 0 19 -4 20 -43 15 -52 -7 -62 2 -71 71 -3 27 -11 54 -16 59 -29 29 17
153 74 202 57 49 126 94 145 94 28 0 166 47 222 75 30 15 69 41 87 56 l33 29
152 0 c139 0 160 -3 252 -30 55 -16 110 -30 123 -30 26 0 83 -27 94 -44 4 -6
8 -45 8 -87 0 -71 -2 -76 -25 -87 -31 -14 -31 -26 0 -95 16 -34 38 -63 60 -78
57 -39 70 -102 31 -153 -40 -52 -86 -154 -93 -203 -3 -26 -15 -62 -25 -79 -22
-38 -16 -45 62 -68 30 -9 78 -26 107 -37 l52 -21 -5 -47 c-4 -25 -18 -63 -32
-85 -25 -37 -26 -39 -7 -52 29 -22 52 -17 72 16 32 55 41 48 126 -110 23 -41
53 -87 69 -101 22 -22 26 -32 22 -60 -6 -36 -8 -32 134 -246 l35 -52 32 24
c17 14 38 25 46 25 20 0 39 -20 39 -41 0 -38 24 -32 69 17 84 92 224 169 246
134 3 -5 36 -19 73 -31 l68 -22 59 32 c123 66 133 74 122 99 -6 12 -8 25 -4
28 9 9 78 23 114 24 30 0 32 2 35 42 4 56 23 59 73 10 37 -35 43 -38 75 -29
40 10 95 4 117 -15 8 -6 27 -12 41 -13 24 0 27 -5 34 -48 8 -59 13 -65 36 -44
24 22 80 21 117 -1 17 -11 51 -22 75 -25 25 -3 55 -9 68 -13 21 -6 22 -3 22
40 0 44 13 75 50 119 8 9 17 27 20 40 5 18 15 23 58 28 35 5 75 20 122 48 l70
42 0 46 c0 26 -6 62 -12 81 -12 33 -12 35 22 63 19 16 43 29 53 29 45 0 113
57 119 100 2 18 11 26 34 31 47 9 54 17 54 58 0 36 -40 121 -126 267 -13 23
-22 48 -19 55 3 8 35 33 70 56 51 34 74 43 108 43 57 0 83 20 91 69 5 32 13
44 36 56 16 8 44 29 62 45 18 16 44 38 58 49 l25 19 -17 48 c-9 26 -15 52 -12
56 3 5 31 21 63 37 32 16 63 41 71 55 16 31 54 44 75 26 12 -10 21 -10 41 -1
35 16 81 14 92 -4 5 -9 4 -47 -1 -87 -7 -52 -6 -87 3 -123 17 -71 10 -188 -13
-213 -26 -29 -32 -84 -13 -123 9 -17 16 -45 16 -60 0 -24 8 -32 48 -52 26 -13
54 -22 63 -20 8 2 28 -1 42 -6 23 -9 27 -16 27 -53 0 -47 31 -108 54 -108 23
0 65 -40 86 -81 18 -34 25 -39 55 -39 54 0 83 -16 99 -55 8 -19 19 -35 24 -35
4 0 23 16 42 35 47 49 82 48 107 -3 13 -27 24 -36 38 -34 89 12 107 0 126 -84
14 -62 8 -76 -69 -163 -49 -56 -52 -61 -30 -61 25 0 95 -23 137 -44 40 -21 61
-50 68 -92 3 -22 16 -50 29 -64 28 -31 54 -100 54 -146 0 -18 -8 -49 -17 -69
-17 -36 -12 -58 9 -37 17 17 48 15 69 -4 16 -15 20 -14 41 5 20 20 24 20 34 6
7 -9 10 -25 7 -35 -3 -11 -1 -20 5 -20 22 0 61 62 72 114 6 30 22 71 36 91 29
44 29 47 3 71 -18 16 -82 96 -148 186 -13 17 -11 24 17 64 l32 44 -20 51 c-15
36 -17 55 -10 68 11 22 60 41 101 41 20 0 34 8 46 26 14 22 15 30 4 58 -31 76
-29 82 51 136 21 14 38 28 38 32 0 21 57 69 100 83 49 16 50 18 50 56 0 40 19
89 48 121 8 10 19 41 23 68 6 37 19 65 48 101 48 61 59 104 37 147 -9 17 -16
44 -16 59 0 24 -12 66 -57 215 -3 10 4 22 20 32 18 13 26 28 30 63 7 61 36 88
108 97 53 7 55 7 84 -27 30 -34 63 -57 85 -57 6 0 19 19 29 43 24 55 46 74 66
57 18 -15 19 -42 3 -127 -9 -50 -9 -78 1 -126 20 -103 40 -145 70 -152 18 -4
38 -24 64 -64 20 -32 45 -65 55 -73 18 -15 106 -38 147 -38 13 0 33 -9 44 -21
l19 -21 23 31 c23 31 61 42 74 21 15 -24 35 -9 35 25 0 49 22 123 38 130 7 3
33 -6 56 -20 56 -32 77 -32 109 5 19 21 36 30 58 30 22 0 42 11 71 40 42 41
57 42 88 6 7 -9 23 -16 35 -16 55 0 87 -14 106 -44 21 -35 25 -76 8 -93 -17
-17 39 -122 69 -129 12 -4 34 -20 48 -37 23 -27 26 -37 21 -80 -4 -33 -2 -49
6 -53 7 -2 48 9 92 24 87 31 105 49 105 112 0 40 -29 129 -66 201 -30 60 -30
74 1 141 33 70 31 89 -7 124 -69 62 -77 65 -117 45 -60 -30 -61 -27 -61 150
l0 159 29 30 c16 17 34 51 41 76 13 45 13 45 128 101 64 30 132 58 153 60 34
5 40 3 51 -21 9 -20 9 -35 1 -56 -13 -35 -7 -45 45 -68 24 -11 58 -36 76 -56
35 -37 71 -47 94 -24 7 7 32 13 55 14 23 1 54 5 68 9 22 6 29 1 53 -35 14 -22
31 -38 36 -35 19 11 51 133 45 168 -13 69 -90 157 -136 157 -10 0 -27 12 -39
28 -19 24 -21 35 -16 92 11 117 18 145 47 181 35 44 36 61 8 106 l-22 35 43
43 c36 37 40 46 31 63 -21 39 -12 132 18 207 32 77 29 95 -17 119 -26 13 -102
83 -130 119 -12 16 -16 16 -52 -3 -65 -33 -90 -65 -90 -113 0 -24 -7 -52 -15
-64 -14 -20 -21 -21 -90 -16 l-75 6 0 -80 c0 -52 -4 -84 -13 -91 -6 -6 -48
-23 -91 -38 -44 -15 -91 -33 -105 -41 -40 -20 -60 -16 -67 15 -10 48 -13 52
-32 52 -11 0 -31 15 -45 33 -21 27 -42 38 -129 65 -58 17 -112 32 -122 32 -9
0 -35 9 -57 21 -55 27 -78 80 -79 175 0 77 -15 104 -58 104 -29 0 -120 35
-142 55 -19 17 -40 20 -83 9 -20 -4 -40 0 -71 17 -42 22 -46 22 -115 9 -55
-10 -77 -11 -97 -1 -14 6 -30 8 -36 5 -14 -9 -123 -13 -170 -6 -28 3 -38 9
-38 22 0 18 46 70 61 70 16 0 49 40 49 58 0 10 -20 44 -45 76 -55 71 -66 108
-55 184 16 113 58 221 105 271 40 43 83 131 99 203 8 36 48 61 105 68 41 4 46
8 49 33 3 21 -5 35 -29 58 -23 21 -33 41 -36 72 -4 35 -11 46 -43 66 -20 12
-44 35 -53 50 -8 15 -24 35 -35 44 -20 18 -22 18 -69 -7 -26 -14 -55 -26 -64
-26 -25 0 -130 72 -167 114 -18 21 -47 66 -64 100 l-30 62 -152 86 c-203 116
-215 121 -341 158 -60 18 -130 43 -155 56 -54 29 -80 30 -111 5 -37 -29 -166
-91 -189 -91 -55 0 -100 52 -100 114 0 21 -12 36 -60 69 -26 18 -95 23 -105 7
-3 -5 6 -30 20 -55 24 -40 25 -46 10 -51 -20 -8 -99 2 -126 16 -15 8 -17 15
-10 28 7 12 4 26 -11 50 -17 28 -18 37 -8 62 17 40 7 60 -29 60 -25 0 -34 8
-58 50 -37 66 -42 66 -57 -2 -11 -49 -42 -36 -76 32 -22 43 -36 60 -50 60 -15
0 -20 -7 -20 -27z"/>
</g>
</svg>
